name C:\Users\u0101727\Documents\MyRepositories\upper-imu-dc\Results\main_tracking\Case_10\FLX01_orientations_groundFrame.mot
datacolumns 13
datarows 21
range 5.01000000 5.21000000
endheader 
time	radius_imu_[0][0]	radius_imu_[0][1]	radius_imu_[0][2]	radius_imu_[1][0]	radius_imu_[1][1]	radius_imu_[1][2]	radius_imu_[2][0]	radius_imu_[2][1]	radius_imu_[2][2]	radius_imu_x	radius_imu_y	radius_imu_z	
          5.01000000	          0.32806374	         -0.87781464	          0.34902097	         -0.32530500	          0.24189138	          0.91414726	         -0.88687702	         -0.41343684	         -0.20620170	         -1.79265064	          0.35652618	          1.21314147	
          5.02000000	          0.32691704	         -0.87381510	          0.35996170	         -0.32298139	          0.25465079	          0.91150205	         -0.88814879	         -0.41424648	         -0.19897633	         -1.78571975	          0.36822684	          1.21279203	
          5.03000000	          0.32537744	         -0.86975765	          0.37101367	         -0.32179907	          0.26709234	          0.90835403	         -0.88914278	         -0.41494976	         -0.19298138	         -1.78013553	          0.38010036	          1.21281382	
          5.04000000	          0.32328712	         -0.86566357	          0.38224602	         -0.32200903	          0.27919698	          0.90463210	         -0.88982899	         -0.41554258	         -0.18849070	         -1.77621892	          0.39222568	          1.21338012	
          5.05000000	          0.32055689	         -0.86155282	          0.39366231	         -0.32364876	          0.29096068	          0.90032959	         -0.89022175	         -0.41601517	         -0.18557105	         -1.77406431	          0.40461221	          1.21459799	
          5.06000000	          0.31722170	         -0.85743859	          0.40517830	         -0.32645044	          0.30240510	          0.89553407	         -0.89039345	         -0.41635348	         -0.18398174	         -1.77342060	          0.41717385	          1.21644777	
          5.07000000	          0.31345197	         -0.85332350	          0.41663756	         -0.32987408	          0.31357823	          0.89042225	         -0.89046670	         -0.41654255	         -0.18319759	         -1.77370726	          0.42974342	          1.21876626	
          5.08000000	          0.30951322	         -0.84919952	          0.42785714	         -0.33324773	          0.32454515	          0.88522110	         -0.89058830	         -0.41657006	         -0.18254280	         -1.77415732	          0.44212062	          1.22128355	
          5.09000000	          0.30569247	         -0.84505158	          0.43867978	         -0.33594507	          0.33537410	          0.88015063	         -0.89089451	         -0.41642773	         -0.18136957	         -1.77401821	          0.45412902	          1.22369756	
          5.10000000	          0.30222520	         -0.84086306	          0.44900919	         -0.33752142	          0.34612405	          0.87537274	         -0.89148147	         -0.41610992	         -0.17920189	         -1.77272135	          0.46565615	          1.22575198	
          5.11000000	          0.29925114	         -0.83662077	          0.45881853	         -0.33776578	          0.35683823	          0.87096542	         -0.89239175	         -0.41561059	         -0.17579761	         -1.76996265	          0.47666505	          1.22728694	
          5.12000000	          0.29680533	         -0.83231766	          0.46813878	         -0.33667944	          0.36754346	          0.86692489	         -0.89361824	         -0.41492063	         -0.17113539	         -1.76569555	          0.48718333	          1.22825301	
          5.13000000	          0.29482995	         -0.82795310	          0.47704189	         -0.33442671	          0.37825232	          0.86318246	         -0.89511679	         -0.41402759	         -0.16536951	         -1.76008392	          0.49728586	          1.22870202	
          5.14000000	          0.29319057	         -0.82353114	          0.48562924	         -0.33129350	          0.38896586	          0.85962211	         -0.89681877	         -0.41291891	         -0.15878939	         -1.75345734	          0.50708284	          1.22877179	
          5.15000000	          0.29169856	         -0.81905645	          0.49402275	         -0.32764640	          0.39967753	          0.85609912	         -0.89864330	         -0.41158766	         -0.15177554	         -1.74626051	          0.51671048	          1.22866230	
          5.16000000	          0.29015750	         -0.81452745	          0.50234814	         -0.32385637	          0.41038156	          0.85246937	         -0.90051412	         -0.41003902	         -0.14471462	         -1.73895255	          0.52631230	          1.22858398	
          5.17000000	          0.28843878	         -0.80992739	          0.51070608	         -0.32017813	          0.42108555	          0.84863003	         -0.90237965	         -0.40829473	         -0.13786363	         -1.73184375	          0.53600584	          1.22867167	
          5.18000000	          0.28655929	         -0.80521704	          0.51914284	         -0.31663459	          0.43182145	          0.84455478	         -0.90422691	         -0.40639360	         -0.13121712	         -1.72493236	          0.54584775	          1.22889433	
          5.19000000	          0.28471402	         -0.80033399	          0.52763949	         -0.31298216	          0.44264714	          0.84030094	         -0.90607952	         -0.40438721	         -0.12446242	         -1.71784369	          0.55581935	          1.22901354	
          5.20000000	          0.28323393	         -0.79520095	          0.53612871	         -0.30879535	          0.45363498	          0.83597891	         -0.90797796	         -0.40233164	         -0.11706954	         -1.70993038	          0.56584429	          1.22862742	
          5.21000000	          0.28247792	         -0.78974148	          0.54453156	         -0.30364158	          0.46485065	          0.83169445	         -0.90994946	         -0.40027774	         -0.10848831	         -1.70050646	          0.57583051	          1.22729251	
